<?xml version="1.0" encoding="utf-8"?>
<!-- Generator: Adobe Illustrator 16.0.0, SVG Export Plug-In . SVG Version: 6.00 Build 0)  -->
<!DOCTYPE svg PUBLIC "-//W3C//DTD SVG 1.1//EN" "http://www.w3.org/Graphics/SVG/1.1/DTD/svg11.dtd">
<svg version="1.1" xmlns="http://www.w3.org/2000/svg" xmlns:xlink="http://www.w3.org/1999/xlink" x="0px" y="0px" width="180px"
	 height="180px" viewBox="0 0 180 180" enable-background="new 0 0 180 180" xml:space="preserve">
<g id="Layer_1" display="none">
	<image display="inline" overflow="visible" width="180" height="180" xlink:href="logo.png" >
	</image>
</g>
<g id="Layer_5">
	<path d="M143.806,77.681c-3.045,0-5.514-2.469-5.514-5.515c0-3.045,2.469-5.514,5.514-5.514c0.749,0,1.46,0.152,2.109,0.421
		c-0.314-3.129-0.91-6.176-1.766-9.115c-0.946,0.764-2.135,1.24-3.445,1.24c-3.045,0-5.514-2.469-5.514-5.515
		c0-2.865,2.193-5.192,4.988-5.461c-1.497-2.799-3.238-5.448-5.211-7.907c-0.958,1.625-2.708,2.727-4.732,2.727
		c-3.046,0-5.515-2.469-5.515-5.515c0-2.044,1.126-3.809,2.778-4.761c-2.381-1.956-4.938-3.707-7.649-5.212
		c0,0.007,0.002,0.014,0.002,0.021c0,3.046-2.468,5.515-5.514,5.515s-5.515-2.469-5.515-5.515c0-1.591,0.684-3.014,1.763-4.02
		c-3.226-1.025-6.583-1.749-10.048-2.113c0.109,0.435,0.186,0.882,0.186,1.351c0,3.046-2.468,5.515-5.515,5.515
		c-3.045,0-5.514-2.469-5.514-5.515c0-0.47,0.076-0.919,0.188-1.355c-3.151,0.33-6.217,0.945-9.174,1.821
		c0.944,0.989,1.532,2.323,1.532,3.799c0,3.046-2.468,5.515-5.514,5.515c-3.012,0-5.452-2.417-5.505-5.417
		c-2.894,1.547-5.627,3.355-8.157,5.41c1.857,0.887,3.15,2.767,3.15,4.962c0,3.046-2.469,5.515-5.515,5.515
		c-2.207,0-4.096-1.305-4.978-3.178c-2.016,2.457-3.801,5.108-5.335,7.916c2.271,0.682,3.937,2.764,3.937,5.257
		c0,3.046-2.469,5.515-5.515,5.515c-0.945,0-1.82-0.26-2.598-0.679c-0.841,2.88-1.44,5.862-1.762,8.927
		c0.523-0.165,1.068-0.278,1.646-0.278c3.046,0,5.515,2.469,5.515,5.514c0,3.046-2.469,5.515-5.515,5.515
		c-0.588,0-1.144-0.117-1.675-0.287c0.338,3.357,0.997,6.622,1.955,9.758c0.991-0.953,2.331-1.544,3.813-1.544
		c3.046,0,5.515,2.469,5.515,5.514c0,2.988-2.38,5.406-5.347,5.497c1.577,2.892,3.416,5.619,5.5,8.139
		c0.964-1.606,2.705-2.691,4.715-2.691c3.046,0,5.515,2.468,5.515,5.513c0,1.969-1.039,3.684-2.591,4.66
		c2.52,2.001,5.228,3.774,8.1,5.277c0.678-2.277,2.764-3.947,5.261-3.947c3.046,0,5.515,2.468,5.515,5.513
		c0,0.876-0.223,1.692-0.586,2.428c2.616,0.712,5.31,1.233,8.073,1.521c-0.098-0.412-0.163-0.836-0.163-1.277
		c0-3.045,2.469-5.513,5.514-5.513c3.047,0,5.515,2.468,5.515,5.513c0,0.438-0.063,0.857-0.16,1.266
		c3.049-0.326,6.018-0.921,8.884-1.76c-0.633-0.897-1.012-1.986-1.012-3.168c0-3.046,2.469-5.514,5.515-5.514
		c2.731,0,4.981,1.988,5.421,4.594c2.717-1.473,5.29-3.176,7.683-5.1c-1.408-0.999-2.333-2.634-2.333-4.492
		c0-3.045,2.469-5.513,5.515-5.513c1.867,0,3.509,0.932,4.506,2.351c1.998-2.458,3.776-5.1,5.295-7.902
		c-0.124,0.008-0.241,0.036-0.366,0.036c-3.045,0-5.514-2.469-5.514-5.515c0-3.045,2.469-5.514,5.514-5.514
		c1.685,0,3.173,0.771,4.185,1.96c1.013-3.241,1.722-6.615,2.068-10.097C145.271,77.529,144.557,77.681,143.806,77.681z
		 M95.168,108.702c-20.146,0-36.535-16.389-36.535-36.533c0-20.145,16.39-36.534,36.535-36.534
		c20.145,0,36.533,16.389,36.533,36.534C131.701,92.313,115.313,108.702,95.168,108.702z"/>
</g>
<g id="Layer_4">
	<path fill="#EF6824" d="M162.646,138.062c-2.795,0-5.061-2.267-5.061-5.062s2.266-5.062,5.061-5.062c0.688,0,1.34,0.14,1.937,0.387
		c-0.289-2.872-0.836-5.669-1.621-8.366c-0.868,0.701-1.959,1.137-3.162,1.137c-2.795,0-5.062-2.265-5.062-5.061
		c0-2.63,2.013-4.767,4.579-5.014c-1.374-2.569-2.973-5.001-4.783-7.258c-0.88,1.492-2.486,2.503-4.344,2.503
		c-2.796,0-5.063-2.266-5.063-5.062c0-1.877,1.034-3.495,2.551-4.371c-2.186-1.794-4.532-3.401-7.021-4.784
		c0,0.007,0.002,0.014,0.002,0.021c0,2.796-2.266,5.062-5.061,5.062c-2.797,0-5.063-2.266-5.063-5.062
		c0-1.46,0.627-2.767,1.617-3.69c-2.961-0.941-6.042-1.605-9.223-1.939c0.101,0.4,0.17,0.811,0.17,1.24
		c0,2.796-2.265,5.062-5.061,5.062s-5.062-2.266-5.062-5.062c0-0.432,0.069-0.844,0.172-1.244c-2.893,0.303-5.707,0.867-8.42,1.672
		c0.866,0.908,1.405,2.132,1.405,3.487c0,2.795-2.265,5.062-5.061,5.062c-2.766,0-5.005-2.219-5.055-4.973
		c-2.654,1.42-5.164,3.08-7.486,4.965c1.705,0.814,2.891,2.541,2.891,4.556c0,2.796-2.265,5.062-5.062,5.062
		c-2.025,0-3.76-1.197-4.569-2.917c-1.85,2.255-3.489,4.69-4.897,7.267c2.085,0.625,3.614,2.537,3.614,4.826
		c0,2.794-2.266,5.062-5.062,5.062c-0.868,0-1.67-0.238-2.385-0.623c-0.771,2.643-1.321,5.381-1.617,8.194
		c0.48-0.151,0.981-0.256,1.511-0.256c2.795,0,5.063,2.267,5.063,5.062c0,2.796-2.267,5.063-5.063,5.063
		c-0.54,0-1.049-0.108-1.537-0.264c0.31,3.082,0.915,6.078,1.794,8.958c0.909-0.875,2.139-1.419,3.5-1.419
		c2.795,0,5.062,2.267,5.062,5.063c0,2.742-2.185,4.963-4.908,5.045c1.447,2.655,3.135,5.158,5.049,7.472
		c0.884-1.476,2.483-2.472,4.328-2.472c2.795,0,5.062,2.266,5.062,5.061c0,1.808-0.954,3.382-2.378,4.277
		c2.312,1.837,4.798,3.466,7.435,4.845c0.621-2.091,2.536-3.623,4.829-3.623c2.795,0,5.063,2.265,5.063,5.06
		c0,0.805-0.205,1.554-0.538,2.229c2.4,0.654,4.874,1.132,7.411,1.396c-0.09-0.378-0.15-0.767-0.15-1.173
		c0-2.794,2.266-5.06,5.062-5.06s5.061,2.266,5.061,5.06c0,0.402-0.058,0.787-0.146,1.163c2.799-0.3,5.523-0.846,8.155-1.616
		c-0.582-0.824-0.93-1.823-0.93-2.908c0-2.796,2.267-5.06,5.063-5.06c2.508,0,4.572,1.824,4.976,4.216
		c2.493-1.352,4.855-2.916,7.053-4.682c-1.293-0.916-2.143-2.417-2.143-4.123c0-2.795,2.267-5.061,5.063-5.061
		c1.714,0,3.221,0.855,4.136,2.158c1.834-2.256,3.467-4.681,4.86-7.254c-0.114,0.007-0.222,0.033-0.336,0.033
		c-2.796,0-5.062-2.266-5.062-5.062s2.266-5.063,5.062-5.063c1.546,0,2.912,0.709,3.841,1.801c0.93-2.976,1.581-6.073,1.898-9.269
		C163.99,137.921,163.335,138.062,162.646,138.062z M118,166.536c-18.491,0-33.535-15.043-33.535-33.534
		c0-18.49,15.044-33.534,33.535-33.534s33.534,15.044,33.534,33.534C151.534,151.493,136.491,166.536,118,166.536z"/>
</g>
<g id="Layer_3">
	<path fill="#4069B2" d="M155.032,91.915c1.902,0,3.614,0.801,4.829,2.078c1.676-5.426,2.734-11.118,3.083-16.998
		c-0.961,0.537-2.066,0.846-3.245,0.846c-3.682,0-6.666-2.985-6.666-6.667s2.984-6.667,6.666-6.667c1.076,0,2.089,0.261,2.988,0.713
		c-0.567-5.506-1.741-10.835-3.477-15.91c-1.223,1.395-3.012,2.28-5.012,2.28c-3.682,0-6.666-2.985-6.666-6.667
		s2.984-6.667,6.666-6.667c0.057,0,0.112,0.007,0.169,0.009c-7.207-13.287-18.45-24.101-32.087-30.806
		c0.012,0.161,0.024,0.321,0.024,0.484c0,3.682-2.985,6.667-6.667,6.667s-6.666-2.985-6.666-6.667c0-1.92,0.816-3.646,2.116-4.862
		c-4.884-1.467-9.974-2.458-15.227-2.875c0.323,0.784,0.504,1.641,0.504,2.542c0,3.682-2.985,6.667-6.667,6.667
		s-6.667-2.985-6.667-6.667c0-0.885,0.176-1.729,0.49-2.501C78.286,0.708,73.204,1.71,68.34,3.214
		c1.063,1.181,1.715,2.738,1.715,4.452c0,3.682-2.985,6.667-6.667,6.667c-3.584,0-6.5-2.832-6.652-6.378
		c-13.192,6.74-24.068,17.353-31.103,30.319c3.535,0.165,6.354,3.075,6.354,6.651c0,3.682-2.985,6.667-6.667,6.667
		c-1.813,0-3.456-0.727-4.658-1.902c-1.674,4.983-2.807,10.209-3.357,15.604c0.716-0.263,1.487-0.414,2.294-0.414
		c3.682,0,6.667,2.985,6.667,6.667s-2.985,6.667-6.667,6.667c-0.88,0-1.718-0.175-2.487-0.484c0.398,5.732,1.477,11.28,3.138,16.573
		c1.181-1.061,2.737-1.711,4.449-1.711c3.682,0,6.667,2.984,6.667,6.666c0,3.563-2.798,6.466-6.316,6.649
		c6.82,13.146,17.546,23.973,30.644,30.94c0.661-2.985,3.32-5.22,6.505-5.22c3.682,0,6.667,2.984,6.667,6.666
		c0,1.345-0.401,2.593-1.086,3.641c4.924,1.569,10.076,2.622,15.39,3.117c-0.103-0.465-0.161-0.947-0.161-1.443
		c0-3.682,2.985-6.666,6.667-6.666c3.681,0,6.667,2.984,6.667,6.666c0,0.519-0.065,1.021-0.178,1.507
		c5.43-0.454,10.689-1.509,15.719-3.083c-0.85-1.119-1.359-2.51-1.359-4.022c0-3.682,2.984-6.666,6.666-6.666
		c3.375,0,6.158,2.511,6.6,5.766c13.558-7.07,24.624-18.25,31.514-31.873c-0.091,0.004-0.18,0.014-0.271,0.014
		c-3.682,0-6.666-2.985-6.666-6.667S151.351,91.915,155.032,91.915z M90,130.512c-32.1,0-58.216-25.949-58.216-57.845
		C31.784,40.771,57.9,14.822,90,14.822c32.101,0,58.217,25.949,58.217,57.844C148.217,104.563,122.101,130.512,90,130.512z"/>
</g>
</svg>
